<svg xmlns="http://www.w3.org/2000/svg" viewBox="0 0 64 64"><rect width="64" height="64" rx="14" fill="#0b1030"/><path d="M32 6 55 19v26L32 58 9 45V19z" fill="#0e1230" stroke="#22d3ee" stroke-width="3" stroke-linejoin="round"/><path d="M9 19l23 13 23-13M32 32v26" fill="none" stroke="#a78bfa" stroke-width="2.2" stroke-linejoin="round"/><path d="M32 14c4 3.4 5.3 8.4 5.3 12.8 0 1.8-.4 3.4-.9 4.7h-8.8c-.5-1.3-.9-2.9-.9-4.7 0-4.4 1.3-9.4 5.3-12.8z" fill="#22d3ee"/><circle cx="32" cy="23.5" r="2.2" fill="#0e1230"/><path d="M29.4 34.5h5.2l-1.6 5a1.2 1.2 0 0 1-2 0z" fill="#fbbf24"/></svg>
